<svg xmlns="http://www.w3.org/2000/svg" style="display: none;">
  <!-- ✅ Added your new SVG as a symbol -->
  <symbol id="icon-github" viewBox="0 0 25 25">
    <path fill-rule="evenodd" clip-rule="evenodd" d="M12.5 1.5625C6.45996 1.5625 1.5625 6.58203 1.5625 12.7783C1.5625 17.7344 4.69727 21.9336 9.04297 23.418C9.58984 23.5205 9.79004 23.1738 9.79004 22.876C9.79004 22.6074 9.78027 21.9043 9.77539 20.9668C6.7334 21.6455 6.08887 19.4629 6.08887 19.4629C5.59082 18.1689 4.87305 17.8223 4.87305 17.8223C3.88184 17.124 4.94629 17.1387 4.94629 17.1387C6.04492 17.2168 6.62109 18.2959 6.62109 18.2959C7.59766 20.0098 9.17969 19.5166 9.80469 19.2285C9.90234 18.5059 10.1855 18.0078 10.498 17.7295C8.07129 17.4463 5.51758 16.4844 5.51758 12.1875C5.51758 10.9619 5.94238 9.96094 6.64062 9.17969C6.52832 8.89648 6.15234 7.75391 6.74805 6.21094C6.74805 6.21094 7.66602 5.9082 9.75586 7.3584C10.6299 7.10938 11.5625 6.98731 12.4951 6.98242C13.4229 6.98731 14.3604 7.10938 15.2344 7.3584C17.3242 5.9082 18.2373 6.21094 18.2373 6.21094C18.833 7.75391 18.457 8.89648 18.3447 9.17969C19.043 9.96582 19.4678 10.9668 19.4678 12.1875C19.4678 16.4941 16.9092 17.4414 14.4727 17.7197C14.8633 18.0664 15.2148 18.75 15.2148 19.7949C15.2148 21.2939 15.2002 22.5049 15.2002 22.8711C15.2002 23.1689 15.3955 23.5205 15.9521 23.4082C20.3076 21.9287 23.4375 17.7295 23.4375 12.7783C23.4375 6.58203 18.54 1.5625 12.5 1.5625Z" fill="white"/>
  </symbol>

  <symbol id="icon-clock" viewBox="0 0 10 10">
    <g clip-path="url(#clip0_6_141)">
      <path d="M5 0.9375C2.75645 0.9375 0.9375 2.75645 0.9375 5C0.9375 7.24355 2.75645 9.0625 5 9.0625C7.24355 9.0625 9.0625 7.24355 9.0625 5C9.0625 2.75645 7.24355 0.9375 5 0.9375ZM6.875 5.625H5C4.91712 5.625 4.83763 5.59208 4.77903 5.53347C4.72042 5.47487 4.6875 5.39538 4.6875 5.3125V2.5C4.6875 2.41712 4.72042 2.33763 4.77903 2.27903C4.83763 2.22042 4.91712 2.1875 5 2.1875C5.08288 2.1875 5.16237 2.22042 5.22097 2.27903C5.27958 2.33763 5.3125 2.41712 5.3125 2.5V5H6.875C6.95788 5 7.03737 5.03292 7.09597 5.09153C7.15458 5.15013 7.1875 5.22962 7.1875 5.3125C7.1875 5.39538 7.15458 5.47487 7.09597 5.53347C7.03737 5.59208 6.95788 5.625 6.875 5.625Z" fill="currentColor"/>
    </g>
    <defs>
      <clipPath id="clip0_6_141">
        <rect width="10" height="10" fill="white"/>
      </clipPath>
    </defs>
  </symbol>

    <symbol id="icon-star" viewBox="0 0 10 10">
    <g clip-path="url(#clip0_6_106)">
      <path d="M4.99998 7.60837L2.06123 9.25337L2.71748 5.95004L0.244568 3.66337L3.58915 3.26671L4.99998 0.208374L6.41082 3.26671L9.7554 3.66337L7.28248 5.95004L7.93873 9.25337L4.99998 7.60837Z" fill="currentColor"/>
    </g>
    <defs>
      <clipPath id="clip0_6_106">
        <rect width="10" height="10" fill="white"/>
      </clipPath>
    </defs>
  </symbol>
</svg>
